<?xml version="1.0" standalone="no"?>
<!DOCTYPE svg PUBLIC "-//W3C//DTD SVG 20010904//EN"
 "http://www.w3.org/TR/2001/REC-SVG-20010904/DTD/svg10.dtd">
<svg version="1.0" xmlns="http://www.w3.org/2000/svg"
 width="260.000000pt" height="260.000000pt" viewBox="0 0 260.000000 260.000000"
 preserveAspectRatio="xMidYMid meet">
<metadata>
Created by potrace 1.11, written by Peter Selinger 2001-2013
</metadata>
<g transform="translate(0.000000,260.000000) scale(0.100000,-0.100000)"
fill="#000000" stroke="none">
<path d="M1489 2187 l-24 -13 -3 -381 c-2 -337 0 -383 14 -397 19 -19 134 -22
152 -4 9 9 12 92 12 314 0 241 3 303 13 307 8 3 82 6 165 6 l152 2 0 -304 c0
-353 -5 -337 96 -337 33 0 65 5 72 12 18 18 17 787 0 792 -7 3 -151 7 -319 10
-228 3 -311 2 -330 -7z"/>
<path d="M460 2171 c-6 -13 -10 -154 -10 -390 0 -323 2 -372 16 -385 19 -19
134 -22 152 -4 9 9 12 94 12 320 l0 308 165 0 165 0 0 -304 c0 -264 2 -307 16
-320 19 -19 134 -22 152 -4 17 17 17 769 0 786 -9 9 -97 12 -335 12 -308 0
-323 -1 -333 -19z"/>
<path d="M1685 1186 c-95 -18 -158 -49 -212 -102 -87 -87 -126 -233 -104 -387
32 -230 170 -336 436 -337 103 0 186 18 258 57 46 26 87 65 87 85 0 16 -83 98
-105 104 -14 3 -40 -6 -75 -28 -48 -30 -62 -33 -141 -36 -190 -8 -269 61 -269
235 1 164 77 237 247 237 73 0 89 -4 144 -32 34 -18 70 -32 79 -32 9 0 38 18
64 41 63 56 63 86 -1 130 -94 65 -266 92 -408 65z"/>
<path d="M470 1161 c-15 -30 -14 -763 2 -779 16 -16 150 -16 166 0 8 8 12 52
12 130 l0 118 128 0 c195 0 281 21 346 86 53 54 61 80 61 199 0 128 -14 162
-87 210 -72 48 -121 55 -380 55 -224 0 -238 -1 -248 -19z m501 -177 c14 -15
21 -35 21 -65 2 -93 -30 -109 -219 -109 l-123 0 0 101 0 101 150 -3 c136 -4
151 -6 171 -25z"/>
</g>
</svg>
